<?xml version="1.0" encoding="iso-8859-1"?>
<!-- Uploaded to: SVG Repo, www.svgrepo.com, Generator: SVG Repo Mixer Tools -->
<svg fill="#000000" height="800px" width="800px" version="1.1" id="Layer_1" xmlns="http://www.w3.org/2000/svg" xmlns:xlink="http://www.w3.org/1999/xlink" 
	 viewBox="0 0 492.572 492.572" xml:space="preserve">
<g>
	<g>
		<path d="M471.527,147.12C445.041,86.938,396.719,40.678,335.45,16.861C274.171-6.976,207.301-5.485,147.142,20.995
			C22.94,75.678-33.622,221.226,21.046,345.447c26.481,60.183,74.808,106.442,136.077,130.269
			c28.933,11.25,59.106,16.856,89.24,16.856c33.683,0,67.317-7.01,99.067-20.99C469.628,416.899,526.195,271.351,471.527,147.12z
			 M441.428,131.704c-32.328,45.254-79.752,86.073-136.77,118.109c-1.186-1.94-2.418-3.846-3.521-5.847
			c-34.279-62.18-21.837-142.695,31.247-206.935C378.623,56.042,416.505,89.053,441.428,131.704z M156.557,38.406
			c28.787-12.437,59.188-18.7,89.657-18.7c22.362,0,44.729,3.531,66.525,10.264c-54.507,69.614-66.095,155.935-28.847,223.495
			c1.076,1.952,2.284,3.808,3.429,5.709c-9.519,4.888-19.271,9.537-29.237,13.926c-16.26,7.161-32.648,13.389-49.037,18.764
			c-4.445-8.734-8.704-17.615-12.689-26.668C162.408,188.041,148.441,107.768,156.557,38.406z M135.658,48.724
			c-5.526,69.779,9.364,148.697,42.676,224.397c3.678,8.361,7.581,16.528,11.6,24.586c-22.285,6.353-44.48,11.065-66.261,13.981
			c-2.91-7.892-6.012-15.75-9.439-23.538c-19.955-45.344-47.833-86.19-80.74-118.707C51.508,119.567,86.815,76.041,135.658,48.724z
			 M26.95,190.762c28.003,29.52,51.784,65.606,69.254,105.31c2.594,5.894,4.981,11.833,7.264,17.788
			c-25.416,2.156-50.098,1.837-73.545-1.029C17.391,272.167,16.97,230.031,26.95,190.762z M39.07,337.524
			c-0.616-1.399-1.146-2.815-1.731-4.221c10.926,1.01,21.994,1.702,33.332,1.702c12.942,0,26.167-0.808,39.517-2.101
			c11.5,35.413,17.471,71.387,17.606,106.236C88.78,415.267,57.887,380.274,39.07,337.524z M164.258,457.361
			c-5.813-2.26-11.415-4.875-16.965-7.565c1.133-39.012-4.64-79.498-17.142-119.302c22.746-3.244,45.841-8.256,69.018-15.049
			c32.548,59.74,74.32,109.769,121.049,144.744C269.526,477.81,214.84,477.031,164.258,457.361z M341.88,451.5
			c-46.82-32.339-90.252-82.478-123.474-142.001c15.927-5.329,31.835-11.432,47.611-18.379c11.064-4.87,21.861-10.075,32.401-15.547
			c33.581,43.558,87.136,70.186,149.339,73.756C425.569,392.839,389.267,429.426,341.88,451.5z M316.039,265.977
			c55.392-31.407,102.157-70.903,135.528-114.799c0.607,1.313,1.346,2.538,1.93,3.865c25.394,57.704,24.671,120.397,3.059,174.817
			C398.267,328.174,347.678,305.154,316.039,265.977z"/>
	</g>
</g>
</svg>