<svg width="41" height="40" viewBox="0 0 41 40" fill="none" xmlns="http://www.w3.org/2000/svg">
<path fill-rule="evenodd" clip-rule="evenodd" d="M9.29081 16.877C8.83337 17.8715 8.83337 19.003 8.83337 21.2659V28.3332C8.83337 31.4759 8.83337 33.0473 9.80968 34.0236C10.7686 34.9825 12.3015 34.9996 15.3334 34.9999V26.6667C15.3334 25.1939 16.5273 24 18 24H23C24.4728 24 25.6667 25.1939 25.6667 26.6667V34.9999C28.6986 34.9996 30.2315 34.9825 31.1904 34.0236C32.1667 33.0473 32.1667 31.4759 32.1667 28.3332V21.2659C32.1667 19.003 32.1667 17.8715 31.7093 16.877C31.2518 15.8824 30.3928 15.146 28.6746 13.6733L27.008 12.2448C23.9024 9.58289 22.3497 8.25195 20.5 8.25195C18.6504 8.25195 17.0977 9.58289 13.9921 12.2448L13.9921 12.2448L12.3255 13.6733C10.6073 15.146 9.74825 15.8824 9.29081 16.877ZM23.6667 34.9999V26.6667C23.6667 26.2985 23.3682 26 23 26H18C17.6319 26 17.3334 26.2985 17.3334 26.6667V34.9999H23.6667Z" fill="#222222"/>
</svg>
