<svg width="46" height="46" viewBox="0 0 46 46" fill="none" xmlns="http://www.w3.org/2000/svg">
<path fill-rule="evenodd" clip-rule="evenodd" d="M27.0136 5.63429V5.63431L27.261 8.10798C27.4243 9.74152 27.506 10.5583 28.0588 10.7873C28.6116 11.0163 29.2469 10.4965 30.5175 9.45689L32.4415 7.88268C33.1073 7.33797 33.4402 7.06561 33.825 7.08481C34.2099 7.104 34.514 7.40813 35.1222 8.01638L37.9837 10.8778C38.5919 11.4861 38.8961 11.7902 38.9153 12.1751C38.9345 12.5599 38.6621 12.8928 38.1174 13.5585L36.5431 15.4826C35.5036 16.7532 34.9838 17.3885 35.2128 17.9413C35.4417 18.4941 36.2585 18.5758 37.892 18.7392L40.3658 18.9865C41.2218 19.0721 41.6497 19.1149 41.9083 19.4006C42.1668 19.6863 42.1668 20.1164 42.1668 20.9766V25.0233C42.1668 25.8835 42.1668 26.3136 41.9083 26.5993C41.6497 26.885 41.2218 26.9278 40.3658 27.0134L37.8928 27.2607C36.2592 27.4241 35.4425 27.5057 35.2135 28.0586C34.9845 28.6114 35.5043 29.2467 36.5439 30.5173L38.1175 32.4406C38.6622 33.1063 38.9345 33.4392 38.9154 33.8241C38.8962 34.2089 38.592 34.513 37.9838 35.1213L35.1223 37.9827C34.5141 38.591 34.2099 38.8951 33.8251 38.9143C33.4403 38.9335 33.1074 38.6611 32.4416 38.1164L30.5176 36.5422C29.247 35.5026 28.6117 34.9829 28.0589 35.2118C27.5061 35.4408 27.4244 36.2576 27.261 37.8911L27.0136 40.3657C26.928 41.2216 26.8852 41.6496 26.5995 41.9081C26.3138 42.1666 25.8837 42.1666 25.0235 42.1666H20.9768C20.1166 42.1666 19.6865 42.1666 19.4008 41.9081C19.1151 41.6496 19.0723 41.2216 18.9867 40.3657L18.7394 37.8919C18.576 36.2583 18.4943 35.4416 17.9415 35.2126C17.3887 34.9836 16.7534 35.5034 15.4828 36.543L13.5586 38.1173C12.8929 38.662 12.56 38.9344 12.1751 38.9152C11.7903 38.896 11.4862 38.5919 10.8779 37.9836L8.01647 35.1221C7.40822 34.5139 7.10409 34.2098 7.0849 33.8249C7.06571 33.4401 7.33806 33.1072 7.88277 32.4414L9.45705 30.5173C10.4966 29.2467 11.0164 28.6114 10.7874 28.0586C10.5585 27.5058 9.74168 27.4241 8.10815 27.2608L5.63449 27.0134H5.63447C4.77855 26.9278 4.35059 26.885 4.09204 26.5993C3.8335 26.3136 3.8335 25.8835 3.8335 25.0233V20.9766C3.8335 20.1164 3.8335 19.6863 4.09204 19.4006C4.35059 19.1149 4.77856 19.0721 5.63449 18.9865L8.10887 18.7391C9.74241 18.5758 10.5592 18.4941 10.7882 17.9413C11.0171 17.3884 10.4974 16.7532 9.45778 15.4826L7.88286 13.5577C7.33815 12.8919 7.06579 12.559 7.08499 12.1742C7.10418 11.7894 7.40831 11.4852 8.01656 10.877L10.878 8.01551C11.4863 7.40726 11.7904 7.10313 12.1752 7.08394C12.5601 7.06474 12.893 7.3371 13.5587 7.88181L15.4829 9.45614C16.7535 10.4957 17.3888 11.0155 17.9416 10.7865C18.4944 10.5575 18.5761 9.74077 18.7394 8.10723L18.9867 5.63431C19.0723 4.77837 19.1151 4.35041 19.4008 4.09186C19.6865 3.83331 20.1166 3.83331 20.9768 3.83331H25.0235C25.8837 3.83331 26.3138 3.83331 26.5995 4.09186C26.8852 4.35041 26.928 4.77837 27.0136 5.63429ZM23.0002 30.6666C27.2343 30.6666 30.6668 27.2342 30.6668 23C30.6668 18.7658 27.2343 15.3333 23.0002 15.3333C18.766 15.3333 15.3335 18.7658 15.3335 23C15.3335 27.2342 18.766 30.6666 23.0002 30.6666Z" fill="#222222"/>
</svg>
